<?xml version="1.0" encoding="UTF-8" standalone="no"?><!DOCTYPE svg PUBLIC "-//W3C//DTD SVG 1.1//EN" "http://www.w3.org/Graphics/SVG/1.1/DTD/svg11.dtd"><svg width="100%" height="100%" viewBox="0 0 1280 1280" version="1.1" xmlns="http://www.w3.org/2000/svg" xmlns:xlink="http://www.w3.org/1999/xlink" xml:space="preserve" xmlns:serif="http://www.serif.com/" style="fill-rule:evenodd;clip-rule:evenodd;stroke-linecap:round;stroke-linejoin:round;stroke-miterlimit:1.5;"><path d="M281.051,804.07c-54.336,-106.969 -82.656,-225.253 -82.656,-345.232c0,0 0,0 0,0c0,-243.728 197.877,-441.605 441.605,-441.605c243.728,0 441.605,197.877 441.605,441.605c0,0 0,0 0,0c0,119.979 -28.32,238.263 -82.656,345.232c-127.84,251.67 -358.949,458.697 -358.949,458.697c0,0 -231.109,-207.027 -358.949,-458.697Zm359.313,-696.43c204.035,0 369.685,166.347 369.685,371.24c0,204.893 -165.65,371.24 -369.685,371.24c-204.035,0 -369.685,-166.347 -369.685,-371.24c0,-204.893 165.65,-371.24 369.685,-371.24Z" style="fill:#262626;"/><path d="M339.428,351.471c35.42,-85.153 106.773,-154.691 201.532,-184.558c170.337,-53.687 352.217,41.017 405.904,211.355c53.688,170.337 -41.017,352.217 -211.354,405.904c-170.337,53.688 -352.217,-41.016 -405.905,-211.354l40.503,-12.766c46.643,147.984 204.653,230.259 352.636,183.617c147.983,-46.642 230.259,-204.652 183.617,-352.635c-46.642,-147.983 -204.652,-230.26 -352.636,-183.618c-83.206,26.226 -145.64,87.661 -176.063,162.725l39.967,19.517l-82.573,28.388l-28.389,-82.573l32.761,15.998Zm239.353,-291.829l-9.96,-4.863l5.25,-8.836l4.71,13.699Z" style="fill:#262626;"/><path d="M626.291,265.176l0,231.626l133.519,87.263" style="fill:none;stroke:#000;stroke-width:36px;"/></svg>