<?xml version="1.0" encoding="UTF-8" standalone="no"?><!DOCTYPE svg PUBLIC "-//W3C//DTD SVG 1.1//EN" "http://www.w3.org/Graphics/SVG/1.1/DTD/svg11.dtd"><svg width="100%" height="100%" viewBox="0 0 1280 1280" version="1.1" xmlns="http://www.w3.org/2000/svg" xmlns:xlink="http://www.w3.org/1999/xlink" xml:space="preserve" xmlns:serif="http://www.serif.com/" style="fill-rule:evenodd;clip-rule:evenodd;stroke-linejoin:round;stroke-miterlimit:1.41421;"><path d="M984.413,1101.31c0,85.268 -76.811,154.495 -171.421,154.495l-342.842,0c-94.61,0 -171.421,-69.227 -171.421,-154.495l0,-645.956l685.684,0l0,645.956Z" style="fill:#262626;"/><path d="M532.719,106.953c13.45,-47.45 57.118,-82.252 108.852,-82.252c51.733,0 95.402,34.802 108.851,82.252l62.57,0c94.61,0 171.421,76.811 171.421,171.421l0,57.278l-685.684,0l0,-57.278c0,-94.61 76.81,-171.421 171.421,-171.421l62.569,0Zm156.242,0c-10.099,-15.463 -27.56,-25.69 -47.39,-25.69c-19.831,0 -37.291,10.227 -47.39,25.69l94.78,0Z" style="fill:#262626;"/></svg>